<svg width="45" height="45" viewBox="0 0 45 45" fill="none" xmlns="http://www.w3.org/2000/svg">
<g clip-path="url(#clip0_2374_5477)">
<path d="M5.625 16.8745C5.625 15.8799 6.02009 14.9261 6.72335 14.2229C7.42661 13.5196 8.38044 13.1245 9.375 13.1245H11.1187C11.736 13.1246 12.3437 12.9723 12.8879 12.6812C13.4322 12.3901 13.8962 11.9692 14.2387 11.4558L15.7613 9.16826C16.1038 8.65483 16.5678 8.23388 17.1121 7.94278C17.6563 7.65168 18.264 7.49942 18.8812 7.49951H26.1188C26.736 7.49942 27.3437 7.65168 27.8879 7.94278C28.4322 8.23388 28.8962 8.65483 29.2388 9.16826L30.7612 11.4558C31.1038 11.9692 31.5678 12.3901 32.1121 12.6812C32.6563 12.9723 33.264 13.1246 33.8812 13.1245H35.625C36.6196 13.1245 37.5734 13.5196 38.2766 14.2229C38.9799 14.9261 39.375 15.8799 39.375 16.8745V33.7495C39.375 34.7441 38.9799 35.6979 38.2766 36.4012C37.5734 37.1044 36.6196 37.4995 35.625 37.4995H9.375C8.38044 37.4995 7.42661 37.1044 6.72335 36.4012C6.02009 35.6979 5.625 34.7441 5.625 33.7495V16.8745Z" stroke="#C7784C" stroke-width="3.41667" stroke-linecap="round" stroke-linejoin="round"/>
<path d="M28.125 24.3745C28.125 25.8664 27.5324 27.2971 26.4775 28.352C25.4226 29.4069 23.9918 29.9995 22.5 29.9995C21.0082 29.9995 19.5774 29.4069 18.5225 28.352C17.4676 27.2971 16.875 25.8664 16.875 24.3745C16.875 22.8827 17.4676 21.4519 18.5225 20.397C19.5774 19.3421 21.0082 18.7495 22.5 18.7495C23.9918 18.7495 25.4226 19.3421 26.4775 20.397C27.5324 21.4519 28.125 22.8827 28.125 24.3745Z" stroke="#C7784C" stroke-width="3.41667" stroke-linecap="round" stroke-linejoin="round"/>
<rect x="29" y="29" width="16" height="16" rx="8" fill="#C7784C"/>
<path d="M33.5046 38.108V36.708H36.2626V33.866H37.7186V36.708H40.4906V38.108H37.7186V40.95H36.2626V38.108H33.5046Z" fill="white"/>
</g>
<defs>
<clipPath id="clip0_2374_5477">
<rect width="45" height="45" fill="white"/>
</clipPath>
</defs>
</svg>
