<svg width="272" height="233" viewBox="0 0 272 233" fill="none" xmlns="http://www.w3.org/2000/svg">
<g clip-path="url(#clip0_2401_6564)">
<rect width="272" height="233" rx="15" fill="white"/>
<path d="M194.398 147.008C194.398 152.802 193.292 158.238 191.078 163.316C188.865 168.395 185.837 172.854 181.996 176.695C178.22 180.471 173.793 183.466 168.715 185.68C163.637 187.893 158.201 189 152.406 189H82.3867V48.9609H152.406C158.201 48.9609 163.637 50.0677 168.715 52.2812C173.793 54.4948 178.22 57.5221 181.996 61.3633C185.837 65.1393 188.865 69.5664 191.078 74.6445C193.292 79.7227 194.398 85.1589 194.398 90.9531C194.398 93.5573 194.04 96.2266 193.324 98.9609C192.608 101.695 191.599 104.332 190.297 106.871C188.995 109.41 187.432 111.721 185.609 113.805C183.786 115.888 181.768 117.613 179.555 118.98C181.833 120.217 183.884 121.91 185.707 124.059C187.53 126.142 189.092 128.453 190.395 130.992C191.697 133.531 192.673 136.201 193.324 139C194.04 141.734 194.398 144.404 194.398 147.008ZM110.414 160.973H152.406C154.359 160.973 156.182 160.615 157.875 159.898C159.568 159.182 161.033 158.206 162.27 156.969C163.572 155.667 164.581 154.169 165.297 152.477C166.013 150.784 166.371 148.961 166.371 147.008C166.371 145.055 166.013 143.232 165.297 141.539C164.581 139.846 163.572 138.382 162.27 137.145C161.033 135.842 159.568 134.833 157.875 134.117C156.182 133.401 154.359 133.043 152.406 133.043H110.414V160.973ZM110.414 105.016H152.406C154.359 105.016 156.182 104.658 157.875 103.941C159.568 103.225 161.033 102.249 162.27 101.012C163.572 99.7096 164.581 98.2122 165.297 96.5195C166.013 94.7617 166.371 92.9062 166.371 90.9531C166.371 89 166.013 87.1771 165.297 85.4844C164.581 83.7917 163.572 82.3268 162.27 81.0898C161.033 79.7878 159.568 78.7786 157.875 78.0625C156.182 77.3464 154.359 76.9883 152.406 76.9883H110.414V105.016Z" fill="#C7784C"/>
<path fill-rule="evenodd" clip-rule="evenodd" d="M207.421 49.1783C196.214 32.7437 175.614 22.9083 170.334 3.72829C164.633 -16.977 161.736 -44.6776 177.582 -59.2064C194.815 -75.0073 225.797 -54.4128 246.201 -65.8328C266.547 -77.2204 265.38 -113.52 287.544 -120.753C308.198 -127.493 331.032 -112.81 347.752 -98.9712C363.536 -85.9062 370.587 -65.6612 377.434 -46.3513C383.442 -29.4078 393.611 -9.68322 385.016 6.12259C375.646 23.3514 340.868 15.083 334.031 33.4608C324.698 58.5485 361.624 89.8487 345.825 111.466C333.433 128.421 305.623 103.78 284.846 100.76C267.202 98.1962 247.414 104.89 232.583 95.0099C217.824 85.1771 217.411 63.8267 207.421 49.1783Z" fill="#9EBB9D"/>
<path fill-rule="evenodd" clip-rule="evenodd" d="M-70.263 158.722C-54.9706 146 -47.1417 124.557 -28.5519 117.474C-8.4836 109.827 18.8152 104.305 34.7871 118.696C52.1575 134.346 34.6073 167.148 47.9186 186.371C61.1922 205.54 97.2158 200.921 106.527 222.296C115.203 242.214 102.762 266.342 90.578 284.304C79.0757 301.262 59.5943 310.208 41.0242 318.863C24.73 326.457 6.06359 338.459 -10.489 331.408C-28.5318 323.722 -23.6133 288.315 -42.5587 283.259C-68.4213 276.357 -96.0623 316.097 -119.086 302.428C-137.145 291.708 -115.263 261.677 -114.237 240.707C-113.365 222.899 -121.913 203.838 -113.49 188.134C-105.107 172.506 -83.8934 170.061 -70.263 158.722Z" fill="#46649D"/>
</g>
<defs>
<clipPath id="clip0_2401_6564">
<rect width="272" height="233" rx="15" fill="white"/>
</clipPath>
</defs>
</svg>
