<svg width="94" height="94" viewBox="0 0 94 94" fill="none" xmlns="http://www.w3.org/2000/svg">
<g filter="url(#filter0_d_2263_5044)">
<rect x="4" width="83" height="83" rx="41.5" fill="#46649D"/>
<path d="M27.312 47.256C25.7653 47.256 24.5653 46.9307 23.712 46.28C22.8587 45.6187 22.4107 44.68 22.368 43.464H24.64C24.7147 44.1467 24.9547 44.6373 25.36 44.936C25.776 45.2347 26.3947 45.384 27.216 45.384C27.8667 45.384 28.4 45.2667 28.816 45.032C29.232 44.7867 29.44 44.4133 29.44 43.912C29.44 43.7307 29.4133 43.5707 29.36 43.432C29.3173 43.2827 29.2213 43.1547 29.072 43.048C28.9227 42.9307 28.7947 42.84 28.688 42.776C28.5813 42.7013 28.384 42.6267 28.096 42.552C27.808 42.4667 27.5893 42.408 27.44 42.376C27.2907 42.3333 27.0133 42.264 26.608 42.168C26.1173 42.0507 25.712 41.9493 25.392 41.864C25.0827 41.7787 24.736 41.6453 24.352 41.464C23.9787 41.2827 23.68 41.0853 23.456 40.872C23.2427 40.648 23.0613 40.36 22.912 40.008C22.7627 39.6453 22.688 39.2347 22.688 38.776C22.688 37.6773 23.088 36.8347 23.888 36.248C24.6987 35.6507 25.76 35.352 27.072 35.352C28.3733 35.352 29.4133 35.6613 30.192 36.28C30.9707 36.8987 31.4027 37.7787 31.488 38.92H29.264C29.2 38.3653 28.9653 37.9387 28.56 37.64C28.1653 37.3413 27.664 37.192 27.056 37.192C26.4267 37.192 25.9253 37.3147 25.552 37.56C25.1787 37.8053 24.992 38.1307 24.992 38.536C24.992 38.9733 25.1733 39.2933 25.536 39.496C25.9093 39.6987 26.56 39.9013 27.488 40.104C28.0427 40.2213 28.496 40.3333 28.848 40.44C29.2 40.536 29.5787 40.68 29.984 40.872C30.4 41.0533 30.72 41.256 30.944 41.48C31.1787 41.704 31.3707 42.0027 31.52 42.376C31.68 42.7387 31.76 43.16 31.76 43.64C31.76 44.7707 31.3493 45.656 30.528 46.296C29.7067 46.936 28.6347 47.256 27.312 47.256ZM38.8576 47L36.5536 43.256L35.6096 44.232V47H33.4496V35.56H35.6096V41.896L38.5216 38.792H41.1296L38.1056 41.912L41.4976 47H38.8576ZM47.5976 47C47.491 46.8613 47.4056 46.5573 47.3416 46.088H47.3096C47.075 46.44 46.7763 46.712 46.4136 46.904C46.051 47.096 45.5443 47.192 44.8936 47.192C44.0296 47.192 43.3363 46.9733 42.8136 46.536C42.291 46.0987 42.0296 45.48 42.0296 44.68C42.0296 43.848 42.3176 43.24 42.8936 42.856C43.4696 42.4613 44.2803 42.1893 45.3256 42.04C46.0936 41.9333 46.6163 41.8267 46.8936 41.72C47.171 41.6027 47.3096 41.4 47.3096 41.112C47.3096 40.8133 47.1923 40.5787 46.9576 40.408C46.723 40.2267 46.3816 40.136 45.9336 40.136C44.9416 40.136 44.4136 40.52 44.3496 41.288H42.4136C42.4456 40.5093 42.7603 39.864 43.3576 39.352C43.955 38.84 44.819 38.584 45.9496 38.584C48.2536 38.584 49.4056 39.592 49.4056 41.608V45.784C49.4056 46.4027 49.5016 46.7813 49.6936 46.92V47H47.5976ZM45.4216 45.672C46.019 45.672 46.4883 45.5173 46.8296 45.208C47.1816 44.8987 47.3576 44.5307 47.3576 44.104V42.872C47.123 43.0107 46.6163 43.1707 45.8376 43.352C45.219 43.4907 44.7816 43.6507 44.5256 43.832C44.2696 44.0027 44.1416 44.2693 44.1416 44.632C44.1416 45.3253 44.5683 45.672 45.4216 45.672ZM51.269 49.688V38.792H53.365V39.816H53.413C54.021 38.984 54.8263 38.568 55.829 38.568C56.9063 38.568 57.7703 38.968 58.421 39.768C59.0717 40.568 59.397 41.6133 59.397 42.904C59.397 44.2267 59.0717 45.2827 58.421 46.072C57.7703 46.8507 56.9117 47.24 55.845 47.24C54.7783 47.24 53.989 46.8507 53.477 46.072H53.445V49.688H51.269ZM55.381 45.432C55.9357 45.432 56.373 45.2133 56.693 44.776C57.0237 44.3387 57.189 43.736 57.189 42.968C57.189 42.1467 57.0343 41.5013 56.725 41.032C56.4157 40.5627 55.941 40.328 55.301 40.328C54.6503 40.328 54.1703 40.5733 53.861 41.064C53.5517 41.544 53.397 42.1787 53.397 42.968C53.397 43.7253 53.5677 44.328 53.909 44.776C54.2503 45.2133 54.741 45.432 55.381 45.432ZM66.0576 47C65.951 46.8613 65.8656 46.5573 65.8016 46.088H65.7696C65.535 46.44 65.2363 46.712 64.8736 46.904C64.511 47.096 64.0043 47.192 63.3536 47.192C62.4896 47.192 61.7963 46.9733 61.2736 46.536C60.751 46.0987 60.4896 45.48 60.4896 44.68C60.4896 43.848 60.7776 43.24 61.3536 42.856C61.9296 42.4613 62.7403 42.1893 63.7856 42.04C64.5536 41.9333 65.0763 41.8267 65.3536 41.72C65.631 41.6027 65.7696 41.4 65.7696 41.112C65.7696 40.8133 65.6523 40.5787 65.4176 40.408C65.183 40.2267 64.8416 40.136 64.3936 40.136C63.4016 40.136 62.8736 40.52 62.8096 41.288H60.8736C60.9056 40.5093 61.2203 39.864 61.8176 39.352C62.415 38.84 63.279 38.584 64.4096 38.584C66.7136 38.584 67.8656 39.592 67.8656 41.608V45.784C67.8656 46.4027 67.9616 46.7813 68.1536 46.92V47H66.0576ZM63.8816 45.672C64.479 45.672 64.9483 45.5173 65.2896 45.208C65.6416 44.8987 65.8176 44.5307 65.8176 44.104V42.872C65.583 43.0107 65.0763 43.1707 64.2976 43.352C63.679 43.4907 63.2416 43.6507 62.9856 43.832C62.7296 44.0027 62.6016 44.2693 62.6016 44.632C62.6016 45.3253 63.0283 45.672 63.8816 45.672Z" fill="white"/>
<rect x="5.5" y="1.5" width="80" height="80" rx="40" stroke="#9EBB9D" stroke-width="3"/>
</g>
<g filter="url(#filter1_d_2263_5044)">
<rect x="60" y="58" width="32" height="32" rx="16" fill="#46649D"/>
<path d="M76 65L76 83" stroke="white" stroke-width="2"/>
<path d="M86 74H67" stroke="white" stroke-width="2"/>
<rect x="60.5783" y="58.5783" width="30.8434" height="30.8434" rx="15.4217" stroke="#9EBB9D" stroke-width="1.15663"/>
</g>
<defs>
<filter id="filter0_d_2263_5044" x="0" y="0" width="91" height="91" filterUnits="userSpaceOnUse" color-interpolation-filters="sRGB">
<feFlood flood-opacity="0" result="BackgroundImageFix"/>
<feColorMatrix in="SourceAlpha" type="matrix" values="0 0 0 0 0 0 0 0 0 0 0 0 0 0 0 0 0 0 127 0" result="hardAlpha"/>
<feOffset dy="4"/>
<feGaussianBlur stdDeviation="2"/>
<feComposite in2="hardAlpha" operator="out"/>
<feColorMatrix type="matrix" values="0 0 0 0 0 0 0 0 0 0 0 0 0 0 0 0 0 0 0.5 0"/>
<feBlend mode="normal" in2="BackgroundImageFix" result="effect1_dropShadow_2263_5044"/>
<feBlend mode="normal" in="SourceGraphic" in2="effect1_dropShadow_2263_5044" result="shape"/>
</filter>
<filter id="filter1_d_2263_5044" x="58.4578" y="58" width="35.0843" height="35.0843" filterUnits="userSpaceOnUse" color-interpolation-filters="sRGB">
<feFlood flood-opacity="0" result="BackgroundImageFix"/>
<feColorMatrix in="SourceAlpha" type="matrix" values="0 0 0 0 0 0 0 0 0 0 0 0 0 0 0 0 0 0 127 0" result="hardAlpha"/>
<feOffset dy="1.54217"/>
<feGaussianBlur stdDeviation="0.771084"/>
<feComposite in2="hardAlpha" operator="out"/>
<feColorMatrix type="matrix" values="0 0 0 0 0 0 0 0 0 0 0 0 0 0 0 0 0 0 0.5 0"/>
<feBlend mode="normal" in2="BackgroundImageFix" result="effect1_dropShadow_2263_5044"/>
<feBlend mode="normal" in="SourceGraphic" in2="effect1_dropShadow_2263_5044" result="shape"/>
</filter>
</defs>
</svg>
