<svg width="33" height="34" viewBox="0 0 33 34" fill="none" xmlns="http://www.w3.org/2000/svg">
<path d="M21.3276 20.065H20.2504L19.8686 19.6968C20.7208 18.7068 21.3436 17.5407 21.6925 16.2819C22.0414 15.023 22.1077 13.7027 21.8867 12.4152C21.2458 8.62443 18.0823 5.59724 14.2642 5.13362C12.9219 4.96381 11.5586 5.10331 10.2785 5.54146C8.99837 5.9796 7.83547 6.70478 6.87875 7.6615C5.92203 8.61821 5.19686 9.78111 4.75871 11.0612C4.32056 12.3413 4.18106 13.7047 4.35087 15.047C4.8145 18.865 7.84168 22.0286 11.6325 22.6695C12.9199 22.8904 14.2403 22.8241 15.4991 22.4752C16.7579 22.1263 17.9241 21.5035 18.9141 20.6513L19.2823 21.0331V22.1104L25.0775 27.9057C25.6366 28.4647 26.5502 28.4647 27.1093 27.9057C27.6684 27.3466 27.6684 26.433 27.1093 25.8739L21.3276 20.065ZM13.1461 20.065C9.75071 20.065 7.00989 17.3242 7.00989 13.9288C7.00989 10.5335 9.75071 7.79263 13.1461 7.79263C16.5414 7.79263 19.2823 10.5335 19.2823 13.9288C19.2823 17.3242 16.5414 20.065 13.1461 20.065Z" fill="black"/>
</svg>
