<svg width="24" height="28" viewBox="0 0 24 28" fill="none" xmlns="http://www.w3.org/2000/svg">
<path d="M23 4H17V2.5C17 1.83696 16.7366 1.20107 16.2678 0.732233C15.7989 0.263392 15.163 0 14.5 0H9.5C8.83696 0 8.20107 0.263392 7.73223 0.732233C7.26339 1.20107 7 1.83696 7 2.5V4H1C0.734784 4 0.48043 4.10536 0.292893 4.29289C0.105357 4.48043 0 4.73478 0 5C0 5.26522 0.105357 5.51957 0.292893 5.70711C0.48043 5.89464 0.734784 6 1 6H2.0625L3.25 25.0575C3.33875 26.7356 4.625 28 6.25 28H17.75C19.3831 28 20.6437 26.7637 20.75 25.0625L21.9375 6H23C23.2652 6 23.5196 5.89464 23.7071 5.70711C23.8946 5.51957 24 5.26522 24 5C24 4.73478 23.8946 4.48043 23.7071 4.29289C23.5196 4.10536 23.2652 4 23 4ZM8.03563 24H8C7.74084 24.0002 7.49174 23.8997 7.3052 23.7198C7.11865 23.5399 7.00923 23.2946 7 23.0356L6.5 9.03562C6.49055 8.77041 6.58685 8.5123 6.7677 8.31808C6.94856 8.12387 7.19916 8.00945 7.46437 8C7.72959 7.99055 7.9877 8.08685 8.18192 8.2677C8.37613 8.44856 8.49055 8.69916 8.5 8.96437L9 22.9644C9.00476 23.0957 8.98359 23.2267 8.93769 23.3499C8.89178 23.473 8.82206 23.5859 8.73249 23.6821C8.64292 23.7783 8.53527 23.8559 8.4157 23.9104C8.29613 23.965 8.16697 23.9954 8.03563 24ZM13 23C13 23.2652 12.8946 23.5196 12.7071 23.7071C12.5196 23.8946 12.2652 24 12 24C11.7348 24 11.4804 23.8946 11.2929 23.7071C11.1054 23.5196 11 23.2652 11 23V9C11 8.73478 11.1054 8.48043 11.2929 8.29289C11.4804 8.10536 11.7348 8 12 8C12.2652 8 12.5196 8.10536 12.7071 8.29289C12.8946 8.48043 13 8.73478 13 9V23ZM15 4H9V2.5C8.99925 2.43413 9.01166 2.36877 9.03652 2.30777C9.06139 2.24677 9.09819 2.19135 9.14477 2.14477C9.19135 2.09819 9.24677 2.06139 9.30777 2.03652C9.36877 2.01166 9.43413 1.99925 9.5 2H14.5C14.5659 1.99925 14.6312 2.01166 14.6922 2.03652C14.7532 2.06139 14.8087 2.09819 14.8552 2.14477C14.9018 2.19135 14.9386 2.24677 14.9635 2.30777C14.9883 2.36877 15.0008 2.43413 15 2.5V4ZM17 23.0356C16.9908 23.2946 16.8813 23.5399 16.6948 23.7198C16.5083 23.8997 16.2592 24.0002 16 24H15.9638C15.8325 23.9953 15.7034 23.9648 15.5839 23.9102C15.4644 23.8557 15.3568 23.7781 15.2673 23.6819C15.1778 23.5857 15.1081 23.4728 15.0623 23.3497C15.0164 23.2266 14.9952 23.0957 15 22.9644L15.5 8.96437C15.5047 8.83305 15.5352 8.70394 15.5898 8.5844C15.6443 8.46487 15.7219 8.35725 15.8181 8.2677C15.9143 8.17815 16.0271 8.10842 16.1502 8.06249C16.2733 8.01655 16.4043 7.99532 16.5356 8C16.6669 8.00468 16.7961 8.03518 16.9156 8.08975C17.0351 8.14433 17.1427 8.22192 17.2323 8.31808C17.3218 8.41425 17.3916 8.52711 17.4375 8.65023C17.4834 8.77334 17.5047 8.9043 17.5 9.03562L17 23.0356Z" fill="#C7784C"/>
</svg>
